<svg width="48" height="48" viewBox="0 0 48 48" fill="none" xmlns="http://www.w3.org/2000/svg">
<path d="M13.551 18.6531C12.2668 18.6959 11.0509 19.2416 10.1654 20.1726C9.27981 21.1036 8.79555 22.3453 8.81697 23.63C8.83838 24.9147 9.36376 26.1395 10.2799 27.0404C11.1959 27.9414 12.4294 28.4463 13.7142 28.4463C14.9991 28.4463 16.2326 27.9414 17.1486 27.0404C18.0647 26.1395 18.5901 24.9147 18.6115 23.63C18.6329 22.3453 18.1487 21.1036 17.2631 20.1726C16.3776 19.2416 15.1617 18.6959 13.8775 18.6531H13.551ZM20.4081 18.6531C19.124 18.6959 17.908 19.2416 17.0225 20.1726C16.137 21.1036 15.6527 22.3453 15.6741 23.63C15.6955 24.9147 16.2209 26.1395 17.137 27.0404C18.0531 27.9414 19.2865 28.4463 20.5714 28.4463C21.8563 28.4463 23.0897 27.9414 24.0058 27.0404C24.9219 26.1395 25.4473 24.9147 25.4687 23.63C25.4901 22.3453 25.0058 21.1036 24.1203 20.1726C23.2347 19.2416 22.0188 18.6959 20.7347 18.6531H20.4081ZM27.2653 18.6531C25.9811 18.6959 24.7652 19.2416 23.8796 20.1726C22.9941 21.1036 22.5098 22.3453 22.5313 23.63C22.5527 24.9147 23.0781 26.1395 23.9941 27.0404C24.9102 27.9414 26.1437 28.4463 27.4285 28.4463C28.7134 28.4463 29.9468 27.9414 30.8629 27.0404C31.779 26.1395 32.3044 24.9147 32.3258 23.63C32.3472 22.3453 31.863 21.1036 30.9774 20.1726C30.0919 19.2416 28.876 18.6959 27.5918 18.6531H27.2653ZM34.1224 18.6531C32.8382 18.6959 31.6223 19.2416 30.7368 20.1726C29.8512 21.1036 29.367 22.3453 29.3884 23.63C29.4098 24.9147 29.9352 26.1395 30.8513 27.0404C31.7674 27.9414 33.0008 28.4463 34.2857 28.4463C35.5706 28.4463 36.804 27.9414 37.7201 27.0404C38.6362 26.1395 39.1615 24.9147 39.183 23.63C39.2044 22.3453 38.7201 21.1036 37.8346 20.1726C36.949 19.2416 35.7331 18.6959 34.4489 18.6531H34.1224Z" stroke="white"/>
</svg>
