<svg width="48" height="48" viewBox="0 0 48 48" fill="none" xmlns="http://www.w3.org/2000/svg">
<g clip-path="url(#clip0_20_245)">
<path fill-rule="evenodd" clip-rule="evenodd" d="M9.7981 15V17.6864H19.7401V19.0408V20.3953H9.7981V23.0817H20.7754C21.0272 23.0817 21.1932 23.0118 21.3648 22.8393L24.255 20.028L27.1452 22.8393C27.3169 23.0118 27.4828 23.0817 27.7346 23.0817H38.7119V20.3953H28.7699V19.0408V17.6864H38.7119V15H27.7346C27.4828 15 27.3169 15.0699 27.1452 15.2424L24.255 18.0537L21.3648 15.2424C21.1932 15.0699 21.0272 15 20.7754 15H9.7981Z" fill="white"/>
<path fill-rule="evenodd" clip-rule="evenodd" d="M8 29.1145V30.2246L12.0859 30.2508C12.1834 30.2508 12.2374 30.2732 12.2995 30.3352L12.734 30.7107C12.7658 30.7425 12.7803 30.7628 12.7803 30.7956C12.7803 30.8283 12.7658 30.8487 12.734 30.8805L12.2995 31.256C12.2374 31.3181 12.1834 31.3404 12.0859 31.3404L8 31.3666V32.4768H12.5975C12.7616 32.4768 12.8426 32.4499 12.9479 32.3446L14.2616 30.9867C14.3111 30.9372 14.3435 30.8599 14.3435 30.7956C14.3435 30.7312 14.3111 30.6541 14.2616 30.6046L12.9479 29.2466C12.8426 29.1413 12.7616 29.1145 12.5975 29.1145H8Z" fill="white"/>
<path d="M18.3723 29.1145C18.3 29.1145 18.259 29.129 18.2306 29.1574L15.0053 32.3959C14.9715 32.4299 14.9867 32.4768 15.0394 32.4768H16.6076L18.2709 30.7514C18.3054 30.7169 18.3314 30.7024 18.3723 30.7024C18.4132 30.7024 18.4391 30.7169 18.4737 30.7514L20.1369 32.4768H21.7052C21.7579 32.4768 21.7731 32.4299 21.7393 32.3959L18.5139 29.1574C18.4856 29.129 18.4446 29.1145 18.3723 29.1145Z" fill="white"/>
<path fill-rule="evenodd" clip-rule="evenodd" d="M28.7714 29.1145V30.2246L24.6856 30.2508C24.588 30.2508 24.534 30.2732 24.472 30.3352L24.0375 30.7107C24.0057 30.7425 23.9911 30.7628 23.9911 30.7956C23.9911 30.8283 24.0057 30.8487 24.0375 30.8805L24.472 31.256C24.534 31.3181 24.588 31.3404 24.6856 31.3404L28.7714 31.3666V32.4768H24.174C24.0098 32.4768 23.9289 32.4499 23.8236 32.3446L22.5098 30.9867C22.4604 30.9372 22.428 30.8599 22.428 30.7956C22.428 30.7312 22.4604 30.6541 22.5098 30.6046L23.8236 29.2466C23.9289 29.1413 24.0098 29.1145 24.174 29.1145H28.7714Z" fill="white"/>
<path d="M31.9758 29.1145H30.6907V32.4768H31.9758V29.1145Z" fill="white"/>
<path d="M36.615 29.1145C36.5427 29.1145 36.5017 29.129 36.4733 29.1574L33.248 32.3959C33.2141 32.4299 33.2294 32.4768 33.282 32.4768H34.8503L36.5136 30.7514C36.5481 30.7169 36.574 30.7024 36.615 30.7024C36.6559 30.7024 36.6818 30.7169 36.7163 30.7514L38.3796 32.4768H39.9479C40.0005 32.4768 40.0158 32.4299 39.9819 32.3959L36.7566 29.1574C36.7283 29.129 36.6873 29.1145 36.615 29.1145Z" fill="white"/>
</g>
<defs>
<clipPath id="clip0_20_245">
<rect width="32" height="17.4768" fill="white" transform="translate(8 15)"/>
</clipPath>
</defs>
</svg>
