<svg width="48" height="48" viewBox="0 0 48 48" fill="none" xmlns="http://www.w3.org/2000/svg">
<g clip-path="url(#clip0_20_254)">
<path d="M39.7333 23.9998C39.7333 32.6894 32.6891 39.7333 23.9999 39.7333C15.3106 39.7333 8.2666 32.6894 8.2666 23.9998C8.2666 15.3108 15.3106 8.26666 23.9999 8.26666C32.6891 8.26666 39.7333 15.3108 39.7333 23.9998Z" fill="#231F20"/>
<path d="M39.1811 23.9998C39.1811 32.3846 32.3844 39.1814 23.9999 39.1814C15.6154 39.1814 8.81836 32.3846 8.81836 23.9998C8.81836 15.6156 15.6154 8.81863 23.9999 8.81863C32.3844 8.81863 39.1811 15.6156 39.1811 23.9998Z" fill="#BDBCBC"/>
<path d="M11.7899 16.3535C11.7899 16.3661 10.1055 16.6222 10.1072 16.6302C10.1154 16.6721 10.0199 25.2951 11.5581 24.8611C12.5709 24.3845 12.0259 18.7659 12.0259 19.5216C12.0259 20.575 12.1282 22.3027 12.5324 25.0161C12.9878 28.0726 12.7959 28.4534 13.0083 29.1116C12.5142 28.6318 11.7456 28.4159 11.7456 28.4159L12.8355 32.0999L13.6381 32.0917C13.6381 32.0917 13.6497 31.8442 13.6602 31.8325C13.6819 31.8323 14.453 31.8896 14.9829 32.8593C18.049 38.4707 26.1211 36.3129 24.008 36.4345L27.3343 36.0341C17.5927 37.7008 15.7652 33.2092 15.2753 32.3125C14.9684 31.8628 14.0862 31.3916 13.5316 31.6599C13.5316 31.6599 14.8854 31.7139 14.8252 31.3549C15.2483 31.7658 13.7732 30.69 13.7732 30.69L13.8475 30.9232C14.0762 30.9463 13.9732 30.6994 14.2142 30.659L13.9151 30.5221C13.8768 30.4751 14.0813 30.2309 13.351 25.3297C12.9497 22.6366 13.0306 20.5401 13.0306 19.4968C13.0306 18.4861 12.9646 18.4146 12.9665 18.4071L12.3728 18.0195L12.259 17.9964C12.0953 17.9632 11.9333 17.9108 11.8629 17.8718C11.8994 17.8176 11.9204 17.7453 11.9204 17.6259C11.9204 17.5104 11.9081 17.3599 11.892 17.1655C11.8708 16.9055 11.8813 15.9739 11.8454 16.285C9.95384 32.7011 12.5722 14.4477 12.2505 14.7984L12.4345 14.59C13.3254 13.5615 16.438 11.1596 24.4691 10.9718C32.9621 10.7728 33.0006 13.8749 33.0296 13.9203L35.2297 15.01C35.2006 14.9634 32.3431 10.2206 23.7182 10.4225C15.5906 10.6128 13.178 13.397 12.2698 14.4452L12.0901 14.6492C11.7167 15.0564 11.2883 15.0601 11.2883 15.6601C11.2883 15.9805 10.9291 16.4073 10.9509 16.6723C11.9994 18.5142 11.6375 17.6037 11.7899 16.3535L11.7899 16.3535ZM35.0148 15.5638C34.8295 15.6434 34.8575 15.944 34.896 16.3597C34.9245 16.6696 34.9573 17.0209 34.896 17.2661L35.1082 17.3195C35.1784 17.0381 35.1436 16.6669 35.1135 16.3393C35.0945 16.1311 35.0649 15.816 35.1093 15.7601C35.1146 15.7673 35.1758 18.1061 35.6577 18.6636C36.4241 19.5509 36.042 19.0404 36.042 20.5866C36.042 21.3487 36.6121 22.2369 36.5894 22.548C36.3054 22.1885 36.2246 21.2635 36.1523 20.4338C36.0679 19.4678 35.9955 18.6338 35.6519 18.3566C36.0753 17.9853 34.6039 16.0398 34.7044 17.3572C34.7736 17.8181 34.5482 16.3226 34.2209 15.8135C33.2185 14.2535 31.142 12.4308 23.926 12.1803C17.3112 11.9506 14.0328 14.6657 13.1901 15.494C13.1912 15.4922 13.2996 15.3051 13.2996 15.3051L12.2247 14.751L11.9206 17.9691L12.3806 17.2431C12.3806 17.2431 13.1233 15.8964 13.1369 15.8649C13.2528 15.7282 16.3873 12.1386 23.9184 12.4001C31.9461 12.6787 33.4117 14.9591 34.0378 15.9329C34.3392 16.4024 34.4183 16.9272 34.4885 17.3901C34.5804 17.9997 34.668 18.5754 35.3526 18.4834C35.4154 18.4752 35.4672 18.4892 35.5152 18.5282C35.7865 18.7468 35.8615 19.6142 35.9348 20.4528C36.0309 21.5624 36.1228 22.6103 36.6327 22.8672L36.7746 22.9388L36.7899 22.7794C36.809 22.5757 37.2486 17.7791 35.8905 16.2065C35.3558 15.5873 35.1589 15.5018 35.0148 15.5638H35.0148ZM37.9185 19.5397C37.7944 18.961 37.5965 18.3298 37.303 17.6878C37.4571 18.0433 37.7036 18.677 37.9185 19.5397ZM37.303 17.6878C37.2655 17.6008 37.2317 17.5257 37.2069 17.4736C37.2423 17.5453 37.2708 17.6162 37.303 17.6878ZM36.6189 16.0997C38.4136 17.8302 38.0916 22.2957 38.0916 22.2957L37.2185 21.2814V25.6081L36.6142 26.8248C35.5395 32.5712 32.9879 37.6416 22.9818 37.3711C12.9761 37.1007 11.4318 31.7601 10.4915 26.6897C9.55131 21.6195 10.8944 16.076 10.8944 16.076C7.93948 24.8643 11.4318 31.4896 11.4318 31.4896C11.4318 31.4896 13.1103 37.709 23.4522 37.6416C33.7934 37.5741 35.4054 31.8277 35.4054 31.8277L35.5933 33.2781C35.5933 33.2781 37.9955 31.0807 38.734 26.4835C39.1082 24.1561 37.6619 17.1053 36.6189 16.0997ZM37.2069 17.4736C37.1721 17.4006 37.151 17.3603 37.151 17.3603C37.1705 17.3983 37.1885 17.436 37.2069 17.4736Z" fill="#231F20"/>
<path d="M37.8779 21.6383C37.8779 21.6383 37.8899 21.6559 37.8779 21.6383V21.6383ZM12.1802 14.4288C12.1802 14.4288 13.5477 13.1677 14.524 12.2387C14.524 12.2387 13.2219 12.9686 12.1802 14.4288ZM11.8163 31.1644C12.5906 32.7263 13.3524 33.7426 13.3524 33.7426C13.3524 33.7426 12.6264 32.6475 11.8163 31.1644ZM37.179 16.1543L36.9246 15.4129L39.197 16.2207L36.9985 15.094L39.2313 13.769L36.7773 14.775L37.17 12.3213L36.3735 14.6915L35.7961 14.5284C34.5852 12.7281 32.9214 11.8271 30.828 10.823C26.9368 8.95592 21.7503 9.45099 21.7503 9.45099C21.7503 9.45099 27.8733 9.52895 32.5569 12.3051C33.5242 12.8785 34.3308 13.6735 35.0001 14.5721L33.9893 14.6278L35.1479 14.7756C35.2571 14.9296 35.3627 15.0861 35.4641 15.2449L34.1191 16.0218L35.5701 15.4127C35.7195 15.6548 35.8615 15.9012 35.9951 16.1504L35.4213 17.9466L36.0996 16.348C37.1046 18.2919 37.634 20.3569 37.8779 21.6383C37.5965 18.9561 37.1057 17.0441 36.4121 15.6098L36.4627 15.4909C36.4627 15.4909 39.0017 18.8092 38.5461 24.2518C38.0906 29.6943 36.7884 31.6191 35.4862 32.9465L35.4213 32.2826C35.4213 32.2826 33.5337 37.9245 24.159 37.7915C14.7844 37.6585 14.0683 34.6059 14.0683 34.6059L13.5475 34.3399C13.5475 34.3399 11.3343 32.6147 9.96704 28.0349C8.59977 23.4553 9.90185 19.7385 9.90185 19.7385C9.90185 19.7385 9.18578 22.7916 9.7066 25.9109C9.97649 27.5275 10.945 29.5701 11.8163 31.1644C11.1768 29.8749 10.5282 28.2134 10.2926 26.4419C9.77153 22.526 9.90185 19.8711 10.5528 17.8802C11.2037 15.8892 11.5945 15.0261 11.5945 15.0261C11.5945 15.0261 8.86042 18.2121 8.79523 24.9819C8.73009 31.7518 14.4588 36.3977 16.9977 37.3933C19.5367 38.3888 27.5441 39.716 32.3614 36.3315C37.179 32.9465 36.8533 32.0838 38.4158 28.964C39.9787 25.8445 39.3274 19.5393 37.179 16.1543ZM36.0389 14.9129C36.0336 14.9043 36.0288 14.8956 36.0236 14.8873L36.0721 14.8935L36.0389 14.9129ZM36.2627 15.3125C36.2352 15.2606 36.2078 15.2076 36.1798 15.1568L36.3329 15.0925L36.2627 15.3125ZM13.3524 15.0261C13.7428 14.3624 15.7609 13.1677 15.7609 13.1677C15.7609 13.1677 14.6541 13.8316 13.4174 15.2917C12.1802 16.7517 13.8731 15.1589 16.1517 13.6323C18.4301 12.1059 21.62 12.2387 21.62 12.2387C21.62 12.2387 20.5786 11.4422 16.6073 12.7034L20.4482 11.044C20.4482 11.044 14.5894 12.3051 12.8966 14.6943C11.2037 17.0837 12.9615 15.6898 13.3524 15.0261ZM32.9489 14.8162C33.6673 15.5622 34.1846 16.2207 34.1846 16.2207C34.1846 16.2207 33.9729 15.5498 32.9489 14.8162ZM10.6831 24.5837C11.3992 31.6191 14.3939 34.6059 14.3939 34.6059C14.3939 34.6059 16.6723 36.8624 23.7683 37.1942C30.8641 37.5259 33.1431 34.7385 33.3384 34.2739C33.5337 33.8094 32.4266 34.5393 32.1013 34.4065C31.7757 34.2739 33.1431 31.818 33.1431 31.818C32.4268 34.4729 33.5337 31.4199 34.2495 31.7518C34.9658 32.0834 32.8173 32.9465 33.5337 33.6102C34.2495 34.2739 35.7465 29.5615 36.7235 27.4376C37.7 25.3139 37.3743 23.1235 37.3094 21.7297C37.2445 20.3358 36.9188 19.7385 36.9188 19.7385L36.7235 23.0573C36.7235 23.0573 36.8539 23.5217 35.8119 21.1985L34.9658 18.942C34.3799 29.2961 32.0359 33.2122 32.0359 33.2122C32.0359 33.2122 31.1897 35.8004 24.3541 35.8669C17.5187 35.9329 16.542 34.1409 16.542 34.1409C14.3287 31.2207 13.0266 24.9819 13.3524 20.867C13.6778 16.7519 13.3524 15.6234 16.2818 14.3624C19.2113 13.1015 23.638 12.9686 23.638 12.9686C28.9552 12.8191 31.6283 13.8698 32.9489 14.8162C32.7841 14.6453 32.6089 14.4692 32.4266 14.2962C31.4501 13.3671 22.4011 11.4422 17.6488 13.3005C12.8966 15.1589 12.571 16.9509 12.8966 22.3934C13.2222 27.8359 14.9147 32.349 16.0865 34.0747C17.2583 35.8004 21.4248 36.3315 21.4248 36.3315C15.7609 36.1985 15.11 33.2122 14.7844 32.6807C14.4588 32.1498 13.4823 31.0877 13.2871 31.9508C13.0918 32.8135 11.3415 27.5376 11.6671 27.272C11.9924 27.0064 14.0032 29.9599 14.0032 29.9599C14.0032 29.9599 13.2871 28.4994 12.571 24.3845C11.8549 20.2697 12.9615 18.2121 12.2454 18.0793C11.5293 17.9466 13.136 24.1513 11.085 24.4272C10.5006 24.506 10.9856 18.9395 11.2462 17.8113C11.5065 16.6828 11.79 16.3536 11.79 16.3536C11.79 16.3536 9.96704 17.5484 10.6831 24.5837Z" fill="url(#paint0_linear_20_254)"/>
<path d="M24.9665 35.4301C24.9776 35.4295 26.5978 35.35 28.0113 35.0316C29.2393 34.755 30.3262 34.2266 30.337 34.2214L30.341 34.2193L30.3454 34.2174C30.3514 34.2148 30.957 33.9534 31.3295 33.5975C31.707 33.2364 31.8787 32.764 31.8805 32.7593C31.8881 32.7388 32.5492 30.9768 33.0492 29.0947C33.5094 27.3627 33.8251 25.448 33.8282 25.4289C33.8332 25.4036 34.2145 23.469 34.3214 21.411C34.4114 19.6814 34.2326 17.7177 34.2307 17.698C34.2296 17.6832 34.1375 16.5203 33.6708 15.7599C33.2514 15.0767 32.4416 14.7411 32.4335 14.7377L32.4264 14.7349L32.4195 14.7312C32.4102 14.7265 31.4699 14.2555 29.6864 13.8675C28.264 13.558 26.2868 13.3371 24.6496 13.3051C22.7779 13.2684 20.7685 13.3989 19.2751 13.6542C17.4841 13.9604 16.3205 14.4152 16.3088 14.4197L16.2991 14.4234L16.289 14.4261C16.2774 14.4293 15.1169 14.7474 14.5068 15.5221C13.887 16.309 13.7866 17.6017 13.7857 17.6147L13.7849 17.6225C13.7832 17.6356 13.6533 18.7505 13.6533 20.1169C13.6533 20.3618 13.6574 20.6149 13.6674 20.8713C13.7373 22.6911 14.0554 24.7082 14.0586 24.7284C14.0623 24.7483 14.4934 27.1164 14.9849 29.1121C15.3491 30.5916 15.8234 31.9004 15.8281 31.9133L15.8313 31.9227L15.8338 31.9323C15.8356 31.9389 15.9972 32.6029 16.2601 33.0665C16.4889 33.4697 16.8259 33.7067 16.8295 33.7088L16.8349 33.7126L16.8404 33.7172C16.8429 33.7189 17.0722 33.9041 17.4242 34.097C17.8295 34.319 18.3726 34.5569 18.3957 34.5667C18.434 34.5816 19.6313 35.0399 21.2098 35.2483C22.8581 35.4659 24.9454 35.4304 24.9664 35.4301L24.9665 35.4301Z" fill="url(#paint1_radial_20_254)" stroke="#6D0115" stroke-width="2"/>
<path d="M17.8128 34.1619C17.7413 34.1292 17.7023 34.1102 17.7023 34.1102C17.6983 34.1085 17.678 34.0996 17.645 34.0845L17.633 34.0135C17.3503 32.4549 16.9189 29.6073 16.7778 26.1349C16.6033 22.0514 16.61 17.0468 16.6266 14.6227V14.4474C16.6742 14.4314 16.7236 14.4152 16.7746 14.3988L16.7753 14.5745C16.7586 16.9779 16.7506 22.0204 16.9262 26.1288C17.0696 29.6617 17.5143 32.545 17.7953 34.0769L17.8128 34.1619Z" fill="#6D0115"/>
<path d="M18.2795 34.3618C18.2224 34.3386 18.1686 34.3164 18.1186 34.2955L18.1049 34.1861C17.8989 32.7183 17.5346 29.7259 17.3615 25.898C17.1777 21.8286 17.2108 16.7136 17.2396 14.3883L17.2399 14.2576C17.2883 14.2437 17.3377 14.2298 17.3882 14.2159L17.3885 14.3601C17.3597 16.6694 17.3255 21.8079 17.5099 25.8915C17.6869 29.8061 18.0641 32.8444 18.2665 34.2684L18.2795 34.3618Z" fill="#6D0115"/>
<path d="M21.7698 13.6274C21.8072 18.1351 21.915 31.1384 21.9465 34.9053L21.9493 35.2234C21.9011 35.2184 21.8517 35.2128 21.8018 35.2071L21.7981 34.9048C21.7667 31.1407 21.659 18.1711 21.6216 13.6471L21.6179 13.5153C21.6679 13.5111 21.7178 13.5069 21.7677 13.5031L21.7698 13.6274Z" fill="#6D0115"/>
<path d="M23.7024 13.5688C23.7153 17.5189 23.7584 30.5938 23.7728 35.0125L23.7739 35.3132C23.7218 35.3139 23.6719 35.3144 23.6243 35.3146V34.9733C23.6094 30.498 23.5664 17.3982 23.5537 13.5201L23.553 13.4193C23.6011 13.4186 23.6495 13.418 23.698 13.4175L23.7024 13.5688Z" fill="#6D0115"/>
<path d="M24.4444 13.5885C24.4226 17.9749 24.3573 31.1391 24.338 35.0128L24.3377 35.3029C24.2863 35.3043 24.2364 35.3055 24.187 35.3066L24.1891 35.0711C24.2078 31.2656 24.274 17.9393 24.2959 13.5593L24.2923 13.4178C24.344 13.4184 24.3956 13.4189 24.4471 13.4198L24.4444 13.5885Z" fill="#6D0115"/>
<path d="M26.4503 34.9357C26.5568 33.1728 26.758 29.4353 26.8405 25.2062C26.9249 20.896 26.8873 15.9909 26.8614 13.6871L26.8529 13.5389C26.9131 13.5441 26.9727 13.5495 27.0322 13.5551L27.0403 13.745C27.066 16.0742 27.1024 20.9341 27.0189 25.2095C26.9369 29.4034 26.7384 33.1145 26.6313 34.8983L26.6158 35.1532C26.5533 35.1606 26.4993 35.1678 26.4358 35.1746L26.4503 34.9357Z" fill="#6D0115"/>
<path d="M31.5193 33.1884C31.4399 33.2966 31.3566 33.3867 31.2856 33.4554L31.3569 33.0771C31.6671 31.4703 32.0682 28.9848 32.2684 26.0662C32.5063 22.5965 32.5368 17.8523 32.5317 15.1565L32.5348 14.8982C32.5927 14.9302 32.6513 14.9641 32.7099 15.0007L32.7102 15.3449C32.7136 18.0716 32.679 22.6832 32.4463 26.0782C32.2499 28.9434 31.8601 31.3934 31.5515 33.0084L31.5193 33.1884Z" fill="#6D0115"/>
<path d="M33.2339 27.3679C33.3623 26.3523 33.4809 25.2125 33.5626 24.0085C33.742 21.3625 33.7466 18.3647 33.7239 16.457L33.7198 16.1385C33.7946 16.3055 33.855 16.4766 33.9037 16.641L33.9072 16.9369C33.9232 18.847 33.9059 21.5823 33.7406 24.0203C33.706 24.5336 33.6644 25.0352 33.6183 25.5207L33.5638 26.0569C33.4495 26.6302 33.3043 27.3293 33.1448 28.0387L33.2339 27.3679Z" fill="#6D0115"/>
<path d="M30.8878 33.7685C30.8313 33.8069 30.7637 33.8506 30.6875 33.8967L30.7417 33.5923C31.0391 31.9556 31.502 28.9848 31.6839 25.5325C31.8834 21.7403 31.8841 17.2324 31.8674 14.9247L31.8605 14.5978C31.9113 14.6158 31.9713 14.6378 32.0378 14.6645L32.0461 14.9688C32.0625 17.2921 32.0606 21.7702 31.8619 25.5418C31.6851 28.8989 31.2429 31.8027 30.9444 33.4728L30.8878 33.7685Z" fill="#6D0115"/>
<path d="M28.6981 34.519C28.8388 32.9939 29.0965 29.8369 29.2204 26.0282C29.3594 21.7526 29.36 16.6859 29.3497 14.2383L29.3443 13.8903C29.4064 13.903 29.4676 13.9158 29.5276 13.9289L29.5283 14.2658C29.5383 16.7254 29.5373 21.7721 29.3986 26.034C29.2756 29.8176 29.0205 32.9593 28.8792 34.5002L28.861 34.6874C28.8019 34.7048 28.743 34.7227 28.6775 34.7409L28.6981 34.519Z" fill="#6D0115"/>
<path d="M28.0823 34.663C28.2367 33.3679 28.4897 30.8575 28.594 27.5924C28.7461 22.8418 28.7274 16.8508 28.7075 14.0785L28.7041 13.7701C28.7632 13.7802 28.8214 13.7903 28.8791 13.8009L28.8858 14.1232C28.9056 16.9165 28.9236 22.8708 28.772 27.5984C28.6692 30.8132 28.4227 33.2985 28.2671 34.6168L28.2383 34.8554C28.179 34.8698 28.1157 34.8858 28.0532 34.9003L28.0823 34.663Z" fill="#6D0115"/>
<path d="M27.5826 34.7681C27.7033 33.3987 27.9117 30.6864 28.0096 27.3867C28.1463 22.7752 28.111 16.9357 28.0782 13.8911L28.0747 13.6736C28.1354 13.6817 28.1954 13.6903 28.2547 13.6989L28.2578 13.9899C28.2903 17.0627 28.3233 22.828 28.188 27.3919C28.0916 30.6406 27.8882 33.321 27.7666 34.7142L27.7444 34.9669C27.683 34.9796 27.6251 34.9914 27.5618 35.0036L27.5826 34.7681Z" fill="#6D0115"/>
<path d="M27.003 34.8844C27.1053 33.2849 27.2988 29.943 27.3834 26.3582C27.4958 21.5929 27.5012 16.2773 27.4963 13.789L27.4912 13.6017C27.5517 13.6085 27.6117 13.6153 27.6711 13.6222L27.6748 13.8334C27.6796 16.341 27.6736 21.6235 27.5617 26.3622C27.4781 29.9042 27.2884 33.2095 27.185 34.8338L27.1695 35.0735C27.1058 35.0841 27.0545 35.0932 26.989 35.1031L27.003 34.8844Z" fill="#6D0115"/>
<path d="M26.3899 13.7057C26.3823 16.2523 26.3568 22.0295 26.2742 26.9574C26.217 30.3686 26.1085 33.3503 26.0453 34.8968L26.0316 35.2123C25.9813 35.2165 25.9307 35.2208 25.8804 35.2248L25.8948 34.9444C25.9575 33.415 26.0678 30.4048 26.1258 26.955C26.2089 22.0029 26.2343 16.1926 26.2417 13.6667L26.2428 13.4919C26.2929 13.4954 26.3428 13.4987 26.3926 13.5024L26.3899 13.7057Z" fill="#6D0115"/>
<path d="M25.6559 13.5885C25.6765 15.8359 25.7072 20.2342 25.6799 24.3788C25.65 28.8655 25.5528 33.1493 25.5068 34.9937L25.5013 35.2518C25.4507 35.2551 25.4004 35.2581 25.3501 35.261L25.357 35.042C25.4027 33.2277 25.5013 28.9062 25.5313 24.3776C25.5587 20.2573 25.5285 15.8856 25.5078 13.6275L25.5061 13.4506C25.5557 13.4528 25.6051 13.4551 25.6545 13.4575L25.6559 13.5885Z" fill="#6D0115"/>
<path d="M25.0729 13.5787C25.1034 16.1563 25.1458 20.7697 25.1251 25.1206C25.1059 29.1686 25.0192 33.0456 24.967 35.0712L24.9626 35.2808C24.9123 35.2831 24.8626 35.2852 24.813 35.2873L24.8192 35.0418C24.8714 33.0098 24.9571 29.1497 24.9765 25.12C24.997 20.7907 24.9552 16.2018 24.9247 13.6177L24.9213 13.4295C24.9713 13.4309 25.0212 13.4325 25.0709 13.4339L25.0729 13.5787Z" fill="#6D0115"/>
<path d="M19.8235 34.8719C19.7718 34.859 19.7204 34.8458 19.6694 34.8321L19.6606 34.7357C19.5359 33.3898 19.285 30.3632 19.1812 26.8104C19.0487 22.2782 19.0928 16.6137 19.1253 13.9464L19.1241 13.8296C19.1736 13.821 19.2234 13.8125 19.2739 13.8042L19.2742 13.9224C19.2417 16.5775 19.1969 22.2619 19.3298 26.8063C19.4349 30.4049 19.6911 33.4627 19.8138 34.7775L19.8235 34.8719Z" fill="#6D0115"/>
<path d="M18.817 34.566C18.7634 34.5468 18.711 34.5279 18.66 34.5091L18.6478 34.3978C18.4207 32.5033 17.9815 28.411 17.8423 24.0694C17.7245 20.3963 17.8263 16.2966 17.8949 14.2348L17.8976 14.0837C17.9468 14.0717 17.9967 14.0597 18.0474 14.0479L18.0454 14.1781C17.977 16.217 17.8718 20.3583 17.9907 24.0649C18.1319 28.4677 18.582 32.6139 18.8055 34.4656L18.817 34.566Z" fill="#6D0115"/>
<path d="M14.5891 27.0151C14.4077 26.1319 14.3017 25.4868 14.2997 25.4755L14.2743 25.0886C14.1697 23.7671 14.0756 22.2866 14.0538 21.0242C14.0278 19.5315 14.0388 18.0389 14.0561 16.9226L14.0499 16.7803C14.0935 16.6109 14.1478 16.4333 14.2154 16.2608L14.2027 17.0545C14.1866 18.1541 14.1774 19.5876 14.2025 21.0219C14.2302 22.619 14.3736 24.5667 14.5079 26.0973L14.5891 27.0151Z" fill="#6D0115"/>
<path d="M15.8804 31.7284C15.7775 31.4266 15.6597 31.0706 15.5374 30.6817L15.4469 30.1595C15.2154 28.7908 15.01 27.3371 14.9518 26.2205C14.649 22.5085 14.6337 18.2237 14.6527 15.9429L14.6564 15.5232C14.7035 15.4717 14.7522 15.4232 14.8018 15.3774L14.8027 15.7743C14.7815 18.0042 14.7898 22.4083 15.1 26.2107C15.1677 27.5126 15.4366 29.2749 15.7129 30.8243L15.8804 31.7284Z" fill="#6D0115"/>
<path d="M16.6103 32.5094C16.3051 31.0047 15.9286 28.7854 15.7338 26.2479C15.4314 22.3104 15.4418 17.677 15.4716 15.3847L15.4751 14.9113C15.4317 14.9335 15.38 14.9615 15.3227 14.9951L15.3228 15.3897C15.2932 17.6872 15.2831 22.3203 15.5856 26.2591C15.7796 28.7867 16.1537 30.9998 16.4588 32.509L16.6486 33.4044C16.6814 33.4415 16.7162 33.478 16.7531 33.5133C16.7799 33.5387 16.8079 33.5639 16.8369 33.5886L16.6103 32.5094Z" fill="#6D0115"/>
<path d="M19.298 34.6437C19.1598 33.4025 18.9158 30.8888 18.8147 27.8551C18.6483 22.8637 18.6365 16.6337 18.6398 14.0459L18.6384 13.9198C18.5878 13.9299 18.5377 13.94 18.4883 13.9503L18.4913 14.0602C18.4879 16.6577 18.5001 22.8757 18.6661 27.8599C18.7651 30.8264 19.0005 33.2968 19.1404 34.5698L19.1521 34.6794C19.2029 34.6959 19.2544 34.7121 19.3066 34.7279L19.298 34.6437Z" fill="#6D0115"/>
<path d="M16.1409 14.6213C16.086 14.6424 16.0355 14.6622 15.9895 14.6808L15.9866 14.904C15.9369 17.2334 15.8716 21.8911 16.0567 24.9516C16.3192 29.2916 16.8632 32.368 17.1321 33.6893L17.1572 33.8194C17.2142 33.8553 17.2791 33.8935 17.3325 33.9238L17.2992 33.7641C17.04 32.5115 16.4745 29.3944 16.2051 24.9429C16.0188 21.862 16.0867 17.1574 16.1364 14.85L16.1409 14.6156" fill="#6D0115"/>
<path d="M19.9134 13.7059C19.8631 13.713 19.8132 13.7203 19.7632 13.7275L19.7657 13.8522C19.7399 16.2786 19.707 21.077 19.7855 25.2781C19.8601 29.2728 20.1052 32.9155 20.2433 34.719L20.261 34.9699C20.3116 34.9801 20.3623 34.9902 20.4131 34.9999L20.3968 34.7785C20.2599 33.0028 20.0095 29.3196 19.9339 25.2753C19.8552 21.0694 19.8885 16.2643 19.9143 13.8424L19.9134 13.7059Z" fill="#6D0115"/>
<path d="M20.5441 13.6241C20.4933 13.6302 20.4428 13.6363 20.3923 13.6426L20.392 13.7642C20.3535 15.7425 20.2965 19.8357 20.3798 23.9111C20.4698 28.5458 20.7124 32.9214 20.8296 34.8436L20.843 35.0761C20.8941 35.0843 20.9448 35.0925 20.9954 35.1001L20.9786 34.846C20.8617 32.9312 20.6184 28.5498 20.5284 23.9082C20.4451 19.8265 20.5024 15.7268 20.5409 13.7546L20.5441 13.6241Z" fill="#6D0115"/>
<path d="M21.1519 13.558C21.1025 13.5627 21.0529 13.568 21.0035 13.573L21.0024 13.6961C20.9859 15.8194 20.9629 20.283 21.0139 24.6138C21.0635 28.8134 21.1902 32.9654 21.2537 34.8669L21.2627 35.1394C21.313 35.1464 21.3629 35.1532 21.4121 35.1596L21.4023 34.866C21.3387 32.9668 21.2119 28.8131 21.1625 24.6119C21.1111 20.2613 21.1346 15.7764 21.1512 13.6664L21.1519 13.558Z" fill="#6D0115"/>
<path d="M22.4405 13.4577C22.3888 13.4607 22.3371 13.4636 22.2854 13.4667L22.2891 13.5497C22.3149 17.4418 22.4029 30.712 22.4313 35.0126L22.4338 35.2701C22.4864 35.2746 22.5363 35.2788 22.5832 35.2824L22.5801 35.0224C22.5515 30.7297 22.4634 17.4239 22.4377 13.5396L22.4405 13.4577Z" fill="#6D0115"/>
<path d="M23.0661 13.4299C23.0158 13.4314 22.9652 13.4333 22.9146 13.4351L22.9183 13.5786C22.9258 17.6977 22.9498 30.9682 22.9571 34.9537L22.9548 35.3082C22.9934 35.3106 23.0215 35.312 23.0375 35.3128C23.046 35.3128 23.0691 35.3134 23.1055 35.3137L23.1058 34.9441C23.0984 30.9473 23.0744 17.6953 23.0668 13.5788L23.0661 13.4299Z" fill="#6D0115"/>
<path d="M29.2024 34.3169C29.4171 32.5103 29.8069 28.7764 29.9718 24.299C30.0948 20.9659 29.9972 16.4946 29.933 14.2587L29.9216 14.0179C29.984 14.0327 30.0445 14.0475 30.1038 14.0623L30.1128 14.3096C30.1769 16.5657 30.2721 20.9953 30.15 24.3054C29.9852 28.7771 29.5965 32.5087 29.3811 34.324L29.3554 34.531C29.3022 34.5491 29.2398 34.57 29.168 34.5928L29.2024 34.3169Z" fill="#6D0115"/>
<path d="M29.9472 34.0588C30.1208 32.4861 30.4255 29.3775 30.6092 25.5002C30.7855 21.7771 30.7763 16.9703 30.7549 14.4218L30.7512 14.2364C30.6937 14.2197 30.6337 14.2028 30.5713 14.1854L30.5764 14.4053C30.5979 16.947 30.6074 21.7642 30.431 25.492C30.2452 29.4163 29.9354 32.5515 29.7632 34.1009L29.73 34.3818C29.7834 34.3574 29.8464 34.3284 29.9151 34.2964L29.9472 34.0588Z" fill="#6D0115"/>
<path d="M30.4935 33.7137C30.7037 32.3062 30.9899 30.0046 31.152 27.0647C31.3934 22.6919 31.437 17.1133 31.4438 14.6194L31.4403 14.4538C31.39 14.4363 31.3311 14.4164 31.2637 14.3942L31.2656 14.5615C31.2593 17.0246 31.2169 22.6522 30.9738 27.0552C30.8049 30.1147 30.502 32.4802 30.2906 33.8628L30.2495 34.1346C30.3153 34.1018 30.3811 34.0678 30.4445 34.0343L30.4935 33.7137Z" fill="#6D0115"/>
<path d="M32.0537 31.8895C32.0537 31.8895 32.2137 31.4485 32.4112 30.8179L32.486 30.3277C32.7291 28.7011 32.9857 26.6721 33.1559 24.4738C33.3823 21.5474 33.3329 17.9828 33.2699 15.8369L33.2562 15.432C33.1969 15.3711 33.1346 15.3136 33.0697 15.2596L33.0841 15.5892C33.1499 17.6947 33.2129 21.4233 32.9779 24.4606C32.7803 27.0134 32.4661 29.3368 32.1919 31.0652L32.0537 31.8895Z" fill="#6D0115"/>
<path fill-rule="evenodd" clip-rule="evenodd" d="M19.4609 25.4919V23.9477H18.1364L18.1413 20.0606H19.8705L19.8612 18.4998H16.2666L16.5915 30.4457H18.171L18.1364 25.4919H19.4609Z" fill="#1A1A1A"/>
<path fill-rule="evenodd" clip-rule="evenodd" d="M20.4856 18.4998L20.6854 30.4457H22.3164L22.3495 18.4998H20.4856Z" fill="#1A1A1A"/>
<path fill-rule="evenodd" clip-rule="evenodd" d="M30.9609 30.4457L31.296 20.0049H32.5737L32.5639 18.4998H28.1316V20.0066H29.4199L29.3829 30.4457H30.9609Z" fill="#1A1A1A"/>
<path fill-rule="evenodd" clip-rule="evenodd" d="M24.8091 24.0286L24.8269 19.971H25.7376C26.1504 20.8747 26.4157 22.0698 26.6237 24.0286H24.8091ZM23.354 30.4454H23.514H24.6911H24.8639L24.8807 25.5056H26.6899C26.8321 26.3776 26.867 29.0689 26.8755 30.4454H27.0251H28.2068H28.3402C28.4784 24.3467 28.0491 20.8995 26.863 18.4997H23.2158L23.354 30.4454Z" fill="#1A1A1A"/>
<path fill-rule="evenodd" clip-rule="evenodd" d="M19.6542 23.7336H18.3264L18.3313 19.8466H20.0649L20.0555 18.2858H16.4519L16.7776 30.2315H18.3611L18.3264 25.2778H19.6542V23.7336Z" fill="url(#paint2_radial_20_254)"/>
<path fill-rule="evenodd" clip-rule="evenodd" d="M22.55 18.2858H20.6814L20.8817 30.2315H22.5168L22.55 18.2858Z" fill="url(#paint3_radial_20_254)"/>
<path fill-rule="evenodd" clip-rule="evenodd" d="M29.6011 30.2315H31.183L31.519 19.7908H32.8L32.7902 18.2858H28.3467V19.7926H29.6383L29.6011 30.2315Z" fill="url(#paint4_radial_20_254)"/>
<path fill-rule="evenodd" clip-rule="evenodd" d="M25.0159 23.8145L25.0339 19.7569H25.9468C26.3607 20.6607 26.6266 21.8557 26.8351 23.8145H25.0159ZM23.5572 30.2312H23.7176H24.8977H25.0709L25.0878 25.2915H26.9015C27.0441 26.1634 27.079 28.8547 27.0876 30.2312H27.2375H28.4222H28.556C28.6945 24.1326 28.2641 20.6855 27.075 18.2857H23.4187L23.5572 30.2312Z" fill="url(#paint5_radial_20_254)"/>
</g>
<defs>
<linearGradient id="paint0_linear_20_254" x1="9.04131" y1="38.1917" x2="38.9692" y2="9.58263" gradientUnits="userSpaceOnUse">
<stop stop-color="#8C8C8C"/>
<stop offset="0.5" stop-color="#464646"/>
<stop offset="0.75" stop-color="white"/>
<stop offset="1" stop-color="white"/>
</linearGradient>
<radialGradient id="paint1_radial_20_254" cx="0" cy="0" r="1" gradientUnits="userSpaceOnUse" gradientTransform="translate(24 24.3657) scale(10.4534 11.1734)">
<stop stop-color="#E60A47"/>
<stop offset="1" stop-color="#7C0626"/>
</radialGradient>
<radialGradient id="paint2_radial_20_254" cx="0" cy="0" r="1" gradientUnits="userSpaceOnUse" gradientTransform="translate(24.626 24.2586) scale(8.17405 5.9729)">
<stop stop-color="#D3D1D2"/>
<stop offset="0.5" stop-color="#C9C7C8"/>
<stop offset="1" stop-color="#8D8B8C"/>
</radialGradient>
<radialGradient id="paint3_radial_20_254" cx="0" cy="0" r="1" gradientUnits="userSpaceOnUse" gradientTransform="translate(24.6259 24.2586) scale(8.17405 5.9729)">
<stop stop-color="#D3D1D2"/>
<stop offset="0.5" stop-color="#C9C7C8"/>
<stop offset="1" stop-color="#8D8B8C"/>
</radialGradient>
<radialGradient id="paint4_radial_20_254" cx="0" cy="0" r="1" gradientUnits="userSpaceOnUse" gradientTransform="translate(24.6259 24.2586) scale(8.17405 5.9729)">
<stop stop-color="#D3D1D2"/>
<stop offset="0.5" stop-color="#C9C7C8"/>
<stop offset="1" stop-color="#8D8B8C"/>
</radialGradient>
<radialGradient id="paint5_radial_20_254" cx="0" cy="0" r="1" gradientUnits="userSpaceOnUse" gradientTransform="translate(24.6261 24.2586) scale(8.17405 5.9729)">
<stop stop-color="#D3D1D2"/>
<stop offset="0.5" stop-color="#C9C7C8"/>
<stop offset="1" stop-color="#8D8B8C"/>
</radialGradient>
<clipPath id="clip0_20_254">
<rect width="32" height="32" fill="white" transform="translate(8 8)"/>
</clipPath>
</defs>
</svg>
