<svg width="48" height="48" viewBox="0 0 48 48" fill="none" xmlns="http://www.w3.org/2000/svg">
<g clip-path="url(#clip0_20_237)">
<path d="M24.0192 38.434C16.0914 38.434 9.59627 31.9071 9.59627 23.9793C9.59627 22.1963 9.91466 20.5088 10.5196 18.9169L18.9569 35.8869C19.0524 36.1098 19.2116 36.3008 19.4663 36.3008C19.721 36.3008 19.8802 36.1098 19.9757 35.8869L23.86 27.195C23.8919 27.0995 23.9555 27.0039 24.051 27.0039C24.1466 27.0039 24.1784 27.0995 24.2421 27.195L28.1264 35.8869C28.2219 36.1098 28.3811 36.3008 28.6358 36.3008C28.8905 36.3008 29.0497 36.1098 29.1452 35.8869L37.5825 18.9169C38.1874 20.5088 38.5058 22.1963 38.5058 23.9793C38.4421 31.9071 31.947 38.434 24.0192 38.434ZM24.0192 20.6999C23.9237 20.6999 23.8919 20.6044 23.8282 20.5088L19.3071 10.3205C20.7717 9.7792 22.3636 9.49265 24.0192 9.49265C25.6748 9.49265 27.2668 9.7792 28.7313 10.3205L24.2102 20.5088C24.1466 20.6362 24.1147 20.6999 24.0192 20.6999ZM19.4026 31.1748C19.3071 31.1748 19.2752 31.0793 19.2116 30.9838L11.8887 16.2106C13.194 14.2048 14.9452 12.5173 17.0784 11.3393L22.3636 23.0878C22.4273 23.2788 22.5865 23.3425 22.7457 23.3425H25.2928C25.4838 23.3425 25.6111 23.3106 25.7067 23.0878L30.9919 11.3393C33.0932 12.5173 34.8762 14.2048 36.1816 16.2106L28.795 30.9838C28.7632 31.0793 28.6995 31.1748 28.604 31.1748C28.5085 31.1748 28.4766 31.0793 28.413 30.9838L25.643 24.6797C25.5475 24.4568 25.4201 24.425 25.2291 24.425H22.682C22.491 24.425 22.3636 24.4568 22.2681 24.6797L19.5936 30.9838C19.5618 31.0793 19.4981 31.1748 19.4026 31.1748ZM24.0192 39.8986C32.8385 39.8986 39.9386 32.7986 39.9386 23.9793C39.9386 15.1599 32.8385 8.05991 24.0192 8.05991C15.1999 8.05991 8.09985 15.1599 8.09985 23.9793C8.09985 32.7986 15.1999 39.8986 24.0192 39.8986Z" fill="white"/>
</g>
<defs>
<clipPath id="clip0_20_237">
<rect width="32" height="32" fill="white" transform="translate(8 8)"/>
</clipPath>
</defs>
</svg>
